# xmcd
# Track frame offsets:
# 150
# 12460
# 25790
# 39802
# 53842
# 68067
# 83120
# 95152
# 107360
# 122277
# 138675
# 153812
# 165850
# 183367
# 197567
#
# Disc length: 2816 seconds
# Revision: 0
# Processed by: cddbd v1.5PL3 Copyright (c) Steve Scherf et al.
# Submitted via: VisiTrax 2.9.5.180 - For more info visit www.synapsa.com
#
DISCID=ae0afe0f
DTITLE=Various Artist - Cavalcade of country
DYEAR=1900
DGENRE=
TTITLE0=Gloria - I'm not that lonely yet
TTITLE1=John Greer - Jones on the jukebox
TTITLE2=Barbara Allen - Until I fall in love again
TTITLE3=Teamwork - Shindig in the barn
TTITLE4=Crawford Bell - Loves have been woven
TTITLE5=Leon - I fell in love again last night
TTITLE6=Kid Wayne - Falling for you
TTITLE7=Crawford Bell and Leon - Lullaby
TTITLE8=Gloria - One day at a time
TTITLE9=John Greer - The old upright piano
TTITLE10=Barbara Allen - May the road rise to meet you
TTITLE11=Teamwork - I saw the light
TTITLE12=Elwood Walker/Jennifer O'Brien - Grandfathers walking with me Lord
TTITLE13=Kid Wayne - Happy country birthday darlin'
TTITLE14=Leon - What's forever for
EXTD=
EXTT0=
EXTT1=
EXTT2=
EXTT3=
EXTT4=
EXTT5=
EXTT6=
EXTT7=
EXTT8=
EXTT9=
EXTT10=
EXTT11=
EXTT12=
EXTT13=
EXTT14=
PLAYORDER=
